<?xml version="1.0" standalone="no"?>
<!DOCTYPE svg PUBLIC "-//W3C//DTD SVG 20010904//EN"
 "http://www.w3.org/TR/2001/REC-SVG-20010904/DTD/svg10.dtd">
<svg version="1.0" xmlns="http://www.w3.org/2000/svg"
 width="270.000000pt" height="60.000000pt" viewBox="0 0 270.000000 60.000000"
 preserveAspectRatio="xMidYMid meet">

<g transform="translate(0.000000,60.000000) scale(0.100000,-0.100000)"
fill="#000000" stroke="none">
<path d="M30 300 l0 -240 140 0 c151 0 183 8 214 52 16 22 16 22 16 -15 l0
-37 165 0 165 0 0 55 0 55 -95 0 -95 0 0 35 0 35 75 0 75 0 0 60 0 60 -75 0
-75 0 0 35 0 35 135 0 135 0 0 -185 0 -185 75 0 75 0 0 185 0 185 35 0 c19 0
35 -2 35 -5 0 -5 61 -282 75 -342 5 -21 11 -23 70 -23 59 0 65 2 70 23 3 12
16 69 29 127 13 58 26 98 30 90 3 -8 16 -64 29 -125 l24 -110 68 0 69 0 42
190 42 190 1 -192 1 -193 420 0 419 0 3 112 3 112 65 -109 66 -110 62 -3 62
-3 0 241 0 240 -65 0 -64 0 -3 -97 -3 -97 -58 97 -58 97 -482 -2 -482 -3 -19
-107 c-11 -60 -22 -108 -25 -108 -3 0 -15 48 -26 108 l-20 107 -66 3 -67 3
-23 -120 c-12 -66 -24 -119 -26 -117 -2 1 -13 54 -26 117 l-23 114 -372 3
-372 2 0 -37 0 -37 -16 23 c-29 41 -72 51 -219 51 l-135 0 0 -240z m228 102
c5 -33 -15 -52 -54 -52 -33 0 -34 1 -34 41 l0 40 43 -3 c35 -3 43 -7 45 -26z
m1682 -102 l0 -130 -105 0 -105 0 0 35 0 35 75 0 75 0 0 60 0 60 -75 0 -75 0
0 35 0 35 105 0 105 0 0 -130z m350 0 l0 -130 -105 0 -105 0 0 35 0 35 75 0
75 0 0 60 0 60 -75 0 -75 0 0 35 0 35 105 0 105 0 0 -130z m-1890 4 l0 -56
-32 28 -33 29 30 27 c17 15 31 28 33 28 1 0 2 -25 2 -56z m-152 -63 c8 -5 12
-21 10 -37 -3 -26 -7 -29 -45 -32 l-43 -3 0 40 c0 40 1 41 33 41 17 0 38 -4
45 -9z"/>
</g>
</svg>
